<svg height="512" viewBox="0 0 128 128" width="512" xmlns="http://www.w3.org/2000/svg"><g><path d="m8.124 119.876a5.544 5.544 0 0 1 .08-7.919l90.716-87.12 4.243 4.243-87.12 90.72a5.544 5.544 0 0 1 -7.919.076z" fill="#a260e5"/><path d="m105.54 26.7-31.89 33.21-5.55-5.56 33.2-31.89z" fill="#7e4bb2"/><path d="m117.768 10.232-5.015 14.789 9.34 12.515-15.615-.2-9.017 12.75-4.635-14.912-14.912-4.635 12.75-9.017-.2-15.615 12.515 9.34z" fill="#f4d844"/><path d="m99.58 38.445a1.749 1.749 0 0 1 -1.427-2.76l3.819-5.4a1.75 1.75 0 1 1 2.857 2.021l-3.818 5.4a1.749 1.749 0 0 1 -1.431.739z" fill="#c1ab36"/><path d="m22.9 112.656-6.857 7.144a5.544 5.544 0 0 1 -7.918.079 5.544 5.544 0 0 1 .079-7.918l7.141-6.861 2.31 2.31z" fill="#7e4bb2"/><g fill="#a260e5"><circle cx="113.724" cy="55.75" r="4"/><circle cx="45.974" cy="29.029" r="4"/><path d="m44.5 62.25h-2.25v-2.25a1.75 1.75 0 0 0 -3.5 0v2.25h-2.25a1.75 1.75 0 0 0 0 3.5h2.25v2.25a1.75 1.75 0 0 0 3.5 0v-2.25h2.25a1.75 1.75 0 0 0 0-3.5z"/><path d="m104 74.23h-2.25v-2.25a1.75 1.75 0 0 0 -3.5 0v2.25h-2.25a1.75 1.75 0 0 0 0 3.5h2.25v2.25a1.75 1.75 0 0 0 3.5 0v-2.25h2.25a1.75 1.75 0 0 0 0-3.5z"/><path d="m74.833 12.583h-2.25v-2.25a1.75 1.75 0 1 0 -3.5 0v2.25h-2.25a1.75 1.75 0 0 0 0 3.5h2.25v2.25a1.75 1.75 0 0 0 3.5 0v-2.25h2.25a1.75 1.75 0 1 0 0-3.5z"/></g></g></svg>