<?xml version="1.0" encoding="iso-8859-1"?>
<!-- Generator: Adobe Illustrator 19.0.0, SVG Export Plug-In . SVG Version: 6.00 Build 0)  -->
<svg version="1.1" id="Capa_1" xmlns="http://www.w3.org/2000/svg" xmlns:xlink="http://www.w3.org/1999/xlink" x="0px" y="0px"
	 viewBox="0 0 409.6 409.6" style="enable-background:new 0 0 409.6 409.6;" xml:space="preserve">
<g>
	<g>
		<g>
			<path d="M58.4,204.8c0-4.4-3.6-8-8-8H18c-4.4,0-8,3.6-8,8c0,4.4,3.6,8,8,8h32.4C54.8,212.8,58.4,209.2,58.4,204.8z"/>
			<path d="M160.8,145.2c2.4,3.6,7.2,5.2,11.2,2.8c3.6-2.4,5.2-7.2,2.8-11.2l-16-28c-2.4-3.6-7.2-5.2-11.2-2.8
				c-3.6,2.4-5.2,7.2-2.8,11.2L160.8,145.2z"/>
			<path d="M30.4,112.8l80,46.4c3.6,2.4,8.4,1.2,10.8-2.8c2.4-3.6,1.2-8.4-2.8-10.8l-80-46.4C34.8,96.8,30,98,27.6,102
				C25.2,105.6,26.4,110.4,30.4,112.8z"/>
			<path d="M120.4,75.2c2.4,3.6,7.2,5.2,11.2,2.8c3.6-2.4,5.2-7.2,2.8-11.2l-16-28c-2.4-3.6-7.2-5.2-11.2-2.8
				c-3.6,2.4-5.2,7.2-2.8,11.2L120.4,75.2z"/>
			<path d="M237.6,147.6c4,2.4,8.8,1.2,11.2-2.8l16-28c2.4-4,1.2-8.8-2.8-11.2c-4-2.4-8.8-1.2-11.2,2.8l-16,28
				C232.4,140.4,233.6,145.2,237.6,147.6z"/>
			<path d="M278,78.4c4,2.4,8.8,1.2,11.2-2.8l16-28c2.4-4,1.2-8.8-2.8-11.2c-4-2.4-8.8-1.2-11.2,2.8l-16,28
				C272.8,71.2,274,76,278,78.4z"/>
			<path d="M204.8,108.4c4.4,0,8-3.6,8-8V8c0-4.4-3.6-8-8-8c-4.4,0-8,3.6-8,8v92.4C196.8,104.8,200.4,108.4,204.8,108.4z"/>
			<path d="M288.4,156.8c2,3.6,6.8,5.2,10.8,2.8l80-46.4c3.6-2,5.2-6.8,2.8-10.8c-2-3.6-6.8-5.2-10.8-2.8l-80,46.4
				C287.6,148,286,152.8,288.4,156.8z"/>
			<path d="M121.2,252.8c-2-3.6-6.8-5.2-10.8-2.8l-80,46.4c-3.6,2-5.2,6.8-2.8,10.8c2,3.6,6.8,5.2,10.8,2.8l80-46.4
				C122,261.6,123.6,256.8,121.2,252.8z"/>
			<path d="M311.2,212.8c4.4,0,8-3.6,8-8c0-4.4-3.6-8-8-8h-32.4c-4.4,0-8,3.6-8,8c0,4.4,3.6,8,8,8H311.2z"/>
			<path d="M379.2,296.8l-80-46.4c-3.6-2.4-8.4-1.2-10.8,2.8c-2.4,3.6-1.2,8.4,2.8,10.8l80,46.4c3.6,2.4,8.4,1.2,10.8-2.8
				C384.4,304,383.2,299.2,379.2,296.8z"/>
			<path d="M250,204.8l20.8-29.2c1.2-1.6,1.6-3.6,1.6-5.6c-0.4-4.4-4.4-7.6-8.8-7.2l-36.4,3.2L212,132.8c-0.8-2-2-3.2-4.4-4.8
				c-4-1.6-8.8,0-10.8,4l-15.2,33.2l-36.4-3.2c-1.6,0-3.6,0.4-5.2,1.6c-3.6,2.4-4.4,7.6-2,11.2l21.2,29.6L138.4,234
				c-1.2,1.6-1.6,3.6-1.6,5.6c0.4,4.4,4.4,7.6,8.8,7.2l36.4-3.2l15.2,33.2c0.8,1.6,2,3.2,4,4c4,1.6,8.8,0,10.8-4l15.6-32.8l36.4,3.2
				c1.6,0,3.6-0.4,5.2-1.6c3.6-2.4,4.4-7.6,2-11.2L250,204.8z M233.2,209.2l14,20l-24.8-2.4c-3.6,0-6.8,2-8,4.8L204,254l-10.4-22.4
				c-1.2-3.2-4.8-4.8-8.4-4.4l-24,2.4l14.4-20c2-3.2,2-6.8,0-9.6l-14-20l24.8,2.4c3.6,0,6.8-2,8-4.8l10.4-22.4l10.4,22.4
				c1.6,3.6,4.8,5.2,8.4,4.4l24-2.4l-14.4,20C231.2,202.8,231.2,206.4,233.2,209.2z"/>
			<path d="M289.2,334.4c-2.4-3.6-7.2-5.2-11.2-2.8c-3.6,2.4-5.2,7.2-2.8,11.2l16,28c2.4,3.6,7.2,5.2,11.2,2.8
				c3.6-2.4,5.2-7.2,2.8-11.2L289.2,334.4z"/>
			<path d="M391.6,196.8h-32.4c-4.4,0-8,3.6-8,8c0,4.4,3.6,8,8,8h32.4c4.4,0,8-3.6,8-8C399.6,200.4,396,196.8,391.6,196.8z"/>
			<path d="M248.8,264.4c-2.4-3.6-7.2-5.2-11.2-2.8c-3.6,2.4-5.2,7.2-2.8,11.2l16,28c2.4,3.6,7.2,5.2,11.2,2.8
				c3.6-2.4,5.2-7.2,2.8-11.2L248.8,264.4z"/>
			<path d="M172,262c-4-2.4-8.8-1.2-11.2,2.8l-16,28c-2.4,4-1.2,8.8,2.8,11.2s8.8,1.2,11.2-2.8l16-28C177.2,269.2,176,264.4,172,262
				z"/>
			<path d="M131.6,331.2c-4-2.4-8.8-1.2-11.2,2.8l-16,28c-2.4,4-1.2,8.8,2.8,11.2c4,2.4,8.8,1.2,11.2-2.8l16-28
				C136.8,338.4,135.6,333.6,131.6,331.2z"/>
			<path d="M130.8,196.8H98.4c-4.4,0-8,3.6-8,8c0,4.4,3.6,8,8,8h32.4c4.4,0,8-3.6,8-8C138.8,200.4,135.2,196.8,130.8,196.8z"/>
			<path d="M204.8,301.2c-4.4,0-8,3.6-8,8v92.4c0,4.4,3.6,8,8,8c4.4,0,8-3.6,8-8v-92.4C212.8,304.8,209.2,301.2,204.8,301.2z"/>
		</g>
	</g>
</g>
<g>
</g>
<g>
</g>
<g>
</g>
<g>
</g>
<g>
</g>
<g>
</g>
<g>
</g>
<g>
</g>
<g>
</g>
<g>
</g>
<g>
</g>
<g>
</g>
<g>
</g>
<g>
</g>
<g>
</g>
</svg>
